<svg xmlns="http://www.w3.org/2000/svg" width="23.119" height="9.014" viewBox="0 0 23.119 9.014">
  <g id="Group_112" transform="translate(-254.265 -114.224)">
    <g id="Icon_ionic-ios-arrow-dropleft" transform="translate(254.265 114.224)">
      <path id="Path_3250" d="M14.943,10.1a.42.42,0,0,0-.592,0l-2.067,2.074a.418.418,0,0,0-.013.576L14.308,14.8a.418.418,0,1,0,.592-.589L13.17,12.453,14.945,10.7A.418.418,0,0,0,14.943,10.1Z" transform="translate(-9.454 -7.946)" fill="#68b4eb"/>
      <path id="Path_3251" d="M7.882,3.375a4.507,4.507,0,1,0,4.507,4.507A4.506,4.506,0,0,0,7.882,3.375Zm2.7,7.2a3.808,3.808,0,1,1,1.118-2.7A3.781,3.781,0,0,1,10.578,10.578Z" transform="translate(-3.375 -3.375)" fill="#68b4eb"/>
    </g>
    <g id="Icon_ionic-ios-arrow-dropleft-2" transform="translate(268.37 114.224)">
      <path id="Path_3250-2" d="M12.286,10.1a.42.42,0,0,1,.592,0l2.067,2.074a.418.418,0,0,1,.013.576L12.921,14.8a.418.418,0,1,1-.592-.589l1.729-1.755L12.284,10.7A.418.418,0,0,1,12.286,10.1Z" transform="translate(-8.76 -7.946)" fill="#68b4eb"/>
      <path id="Path_3251-2" d="M7.882,3.375A4.507,4.507,0,1,1,3.375,7.882,4.506,4.506,0,0,1,7.882,3.375Zm-2.7,7.2a3.808,3.808,0,1,0-1.118-2.7A3.781,3.781,0,0,0,5.187,10.578Z" transform="translate(-3.375 -3.375)" fill="#68b4eb"/>
    </g>
  </g>
</svg>
