<svg xmlns="http://www.w3.org/2000/svg" viewBox="0 0 14.086 14.086">
  <g id="vuesax_outline_edit" data-name="vuesax/outline/edit" transform="translate(-620 -252)">
    <g id="edit" transform="translate(620 252)">
      <path id="Vector" d="M8.07,12.619H4.549C1.362,12.619,0,11.257,0,8.07V4.549C0,1.362,1.362,0,4.549,0H5.723a.443.443,0,0,1,.44.44.443.443,0,0,1-.44.44H4.549C1.843.88.88,1.843.88,4.549V8.07c0,2.706.963,3.668,3.668,3.668H8.07c2.706,0,3.668-.963,3.668-3.668V6.9a.44.44,0,1,1,.88,0V8.07C12.619,11.257,11.257,12.619,8.07,12.619Z" transform="translate(0.734 0.734)" fill="#68b4eb"/>
      <path id="Vector-2" data-name="Vector" d="M1.29,9.8a1.314,1.314,0,0,1-.927-.364A1.321,1.321,0,0,1,.017,8.289L.269,6.522A2.036,2.036,0,0,1,.78,5.5L5.4.876a2.208,2.208,0,0,1,3.522,0A2.451,2.451,0,0,1,9.8,2.819a2.611,2.611,0,0,1-.869,1.573L4.3,9.017a2.036,2.036,0,0,1-1.021.511L1.513,9.78A.979.979,0,0,1,1.29,9.8ZM6.027,1.5,1.4,6.123a1.194,1.194,0,0,0-.264.522L.885,8.412a.461.461,0,0,0,.1.4.461.461,0,0,0,.4.1l1.767-.252a1.164,1.164,0,0,0,.522-.264L8.3,3.77a1.8,1.8,0,0,0,.61-1.039A1.629,1.629,0,0,0,8.3,1.492,1.361,1.361,0,0,0,6.027,1.5Z" transform="translate(3.699 0.585)" fill="#68b4eb"/>
      <path id="Vector-3" data-name="Vector" d="M3.338,3.784a.378.378,0,0,1-.117-.018,4.658,4.658,0,0,1-3.2-3.2A.446.446,0,0,1,.321.016a.437.437,0,0,1,.54.305A3.771,3.771,0,0,0,3.456,2.916a.443.443,0,0,1,.305.546A.432.432,0,0,1,3.338,3.784Z" transform="translate(8.312 1.985)" fill="#68b4eb"/>
      <path id="Vector-4" data-name="Vector" d="M0,0H14.086V14.086H0Z" fill="none" opacity="0"/>
    </g>
  </g>
</svg>
