<svg xmlns="http://www.w3.org/2000/svg"  viewBox="0 0 92 92"><g transform="translate(-556 -188)"><g transform="translate(556 188)"><path d="M0,0H92V92H0Z" fill="none" opacity="0"/><path d="M52.559,8.855V2.875a2.875,2.875,0,0,0-5.75,0v5.75H21.893V2.875a2.875,2.875,0,1,0-5.75,0v5.98C5.793,9.813.771,15.985,0,25.147a1.926,1.926,0,0,0,1.917,2.032h64.86A1.9,1.9,0,0,0,68.7,25.147C67.931,15.985,62.909,9.813,52.559,8.855Z" transform="translate(11.649 4.792)" fill="#68b4eb"/><path d="M15.333,0A15.329,15.329,0,0,0,0,15.333a15.03,15.03,0,0,0,2.223,7.9,15.274,15.274,0,0,0,26.22,0,15.03,15.03,0,0,0,2.223-7.9A15.329,15.329,0,0,0,15.333,0Zm7.935,13.685L15.1,21.237A2.924,2.924,0,0,1,13.148,22a2.843,2.843,0,0,1-2.032-.843l-3.795-3.8A2.873,2.873,0,0,1,11.385,13.3l1.84,1.84,6.133-5.673a2.875,2.875,0,1,1,3.91,4.217Z" transform="translate(57.5 57.5)" fill="#68b4eb"/><path d="M65.167,0H3.833A3.845,3.845,0,0,0,0,3.833V27.447c0,11.5,5.75,19.167,19.167,19.167h18.9a3.826,3.826,0,0,0,3.642-5.06,22.322,22.322,0,0,1-1.418-6.44A21.121,21.121,0,0,1,61.372,14.03a18.819,18.819,0,0,1,3.3.268,3.815,3.815,0,0,0,4.37-3.757V3.872A3.911,3.911,0,0,0,65.167,0ZM23.805,32.085a3.888,3.888,0,0,1-5.443,0,3.888,3.888,0,0,1,0-5.443,3.957,3.957,0,0,1,1.265-.805,3.829,3.829,0,0,1,4.178.805,3.888,3.888,0,0,1,0,5.443Zm0-13.417-.575.46a2.9,2.9,0,0,1-.69.345,2.437,2.437,0,0,1-.69.23,5.761,5.761,0,0,1-.767.077,3.8,3.8,0,0,1-3.833-3.833,4.031,4.031,0,0,1,1.112-2.722A3.87,3.87,0,0,1,21.85,12.19a2.437,2.437,0,0,1,.69.23,2.9,2.9,0,0,1,.69.345l.575.46a3.888,3.888,0,0,1,0,5.443Zm13.417,0a3.833,3.833,0,0,1-6.555-2.722,4.031,4.031,0,0,1,1.112-2.722,4.014,4.014,0,0,1,5.443,0,3.888,3.888,0,0,1,0,5.443Z" transform="translate(11.5 37.72)" fill="#68b4eb"/></g></g></svg>