<svg xmlns="http://www.w3.org/2000/svg" width="20" height="20" viewBox="0 0 20 20"><g transform="translate(0)"><path d="M.623,11.365a.618.618,0,0,0,.442-.183L6.123,6.123a.629.629,0,0,0,0-.883L1.065.181a.625.625,0,0,0-.883.883L4.8,5.681.181,10.3a.629.629,0,0,0,0,.883A.6.6,0,0,0,.623,11.365Z" transform="translate(11.402 4.319)" fill="#fff"/><path d="M.625,1.25H14.65a.63.63,0,0,0,.625-.625A.63.63,0,0,0,14.65,0H.625A.63.63,0,0,0,0,.625.63.63,0,0,0,.625,1.25Z" transform="translate(2.292 9.375)" fill="#fff"/><path d="M20,0H0V20H20Z" fill="none" opacity="0"/></g></svg>