<svg xmlns="http://www.w3.org/2000/svg"  viewBox="0 0 23.076 23.55"><path d="M-15.314,2.452A3.857,3.857,0,0,1-16.7,2.234a2.438,2.438,0,0,1-.925-.6,2.292,2.292,0,0,1-.518-.909A3.889,3.889,0,0,1-18.3-.415q0-.313.013-.779t.013-1.079q0-.613-.007-1.346t-.036-1.47q-.029-.736-.085-1.414a10.894,10.894,0,0,0-.153-1.18l1.949-.593q.085.43.14,1.013t.088,1.222q.033.639.049,1.284t.023,1.2q.007.489-.016,1.026t-.036,1.03q-.013.492.01.89A1.711,1.711,0,0,0-16.227,0a.584.584,0,0,0,.147.228.582.582,0,0,0,.205.117.951.951,0,0,0,.257.046q.14.007.31.007h.176V2.452Zm5.572-.02a4.213,4.213,0,0,1-.808-.081,6.214,6.214,0,0,1-.818-.218,6.709,6.709,0,0,1-.769-.316,5.822,5.822,0,0,1-.655-.368,2.552,2.552,0,0,1-.459.479,2.277,2.277,0,0,1-.521.31,2.486,2.486,0,0,1-.6.166,4.639,4.639,0,0,1-.694.049h-.326V.393h.326a1.383,1.383,0,0,0,.723-.176,1.751,1.751,0,0,0,.5-.453,3.55,3.55,0,0,0,.368-.613q.16-.336.329-.655.2-.4.44-.8a3.89,3.89,0,0,1,.564-.717,2.724,2.724,0,0,1,.72-.518,2,2,0,0,1,.9-.2,2.13,2.13,0,0,1,1.176.316,2.614,2.614,0,0,1,.811.828,3.84,3.84,0,0,1,.472,1.16A5.666,5.666,0,0,1-7.9-.122,3.1,3.1,0,0,1-8.067.9a2.844,2.844,0,0,1-.424.808,2.053,2.053,0,0,1-.59.531A1.3,1.3,0,0,1-9.742,2.432Zm-.834-4.177a.517.517,0,0,0-.352.147,1.9,1.9,0,0,0-.306.362,3.221,3.221,0,0,0-.257.469q-.114.254-.205.469a3.418,3.418,0,0,0,.489.254,5.315,5.315,0,0,0,.567.205q.293.088.593.147t.573.085a2.938,2.938,0,0,0-.039-.782,2.507,2.507,0,0,0-.225-.684,1.582,1.582,0,0,0-.368-.486A.7.7,0,0,0-10.576-1.745Zm3.089,6.784A11.236,11.236,0,0,0-5.813,4.58a7.782,7.782,0,0,0,1.326-.619,4.656,4.656,0,0,0,.945-.727,2.393,2.393,0,0,0,.531-.782q-.28,0-.593-.01t-.515-.023a4.471,4.471,0,0,1-1.173-.244A2.819,2.819,0,0,1-6.2,1.647,2.279,2.279,0,0,1-6.79.829,2.769,2.769,0,0,1-7-.279a4.087,4.087,0,0,1,.085-.815,4.682,4.682,0,0,1,.244-.815,3.989,3.989,0,0,1,.4-.749,3.3,3.3,0,0,1,.538-.619,2.388,2.388,0,0,1,.661-.42,1.976,1.976,0,0,1,.779-.153,2.287,2.287,0,0,1,.912.179,2.873,2.873,0,0,1,.766.486A3.5,3.5,0,0,1-2-2.465a5.549,5.549,0,0,1,.469.886A6.789,6.789,0,0,1-1.2-.6a7.2,7.2,0,0,1,.179.994h.28V2.452H-1.16a5.287,5.287,0,0,1-.811,1.737A6.176,6.176,0,0,1-3.3,5.547a7.5,7.5,0,0,1-1.724.958,8.954,8.954,0,0,1-1.978.534Zm3.193-6.823a.424.424,0,0,0-.313.094,1.362,1.362,0,0,0-.326.326,2.236,2.236,0,0,0-.254.453,1.139,1.139,0,0,0-.1.476.531.531,0,0,0,.143.365,1.079,1.079,0,0,0,.352.238A2.053,2.053,0,0,0-4.3.308q.27.046.538.065t.5.02h.4a7.5,7.5,0,0,0-.231-.776,3.768,3.768,0,0,0-.31-.665,2.054,2.054,0,0,0-.4-.489A1.03,1.03,0,0,0-4.294-1.784ZM-1,.393H.561q.28,0,.619-.029A3.05,3.05,0,0,0,1.815.243a1.3,1.3,0,0,0,.5-.27.606.606,0,0,0,.2-.472,1.769,1.769,0,0,0-.094-.466q-.094-.31-.248-.691t-.345-.8q-.192-.417-.381-.8L3.3-4.176q.182.411.362.873t.323.938a8.986,8.986,0,0,1,.231.948,4.934,4.934,0,0,1,.088.9,2.916,2.916,0,0,1-.3,1.372,2.551,2.551,0,0,1-.8.919,3.413,3.413,0,0,1-1.193.515,6.441,6.441,0,0,1-1.466.16H-1ZM2.034-6.326.808-5.1-.456-6.359.8-7.617,2.034-6.378,3.259-7.6,4.523-6.346,3.272-5.088Z" transform="translate(18.553 16.51)" fill="#d8eeff"/><path d="M-3.21,6.048a6.827,6.827,0,0,1-2.04-.287A4.324,4.324,0,0,1-6.823,4.9,3.849,3.849,0,0,1-7.84,3.484,5.021,5.021,0,0,1-8.2,1.506,7.078,7.078,0,0,1-7.86-.651a8.662,8.662,0,0,1,1.013-2.1L-5.38-1.7a3.74,3.74,0,0,0-.306.528A7.719,7.719,0,0,0-6.3.584a4.545,4.545,0,0,0-.111.974,1.967,1.967,0,0,0,.244.978,2.441,2.441,0,0,0,.652.749,3.155,3.155,0,0,0,.938.489,3.764,3.764,0,0,0,1.1.189,4.3,4.3,0,0,0,1.329-.179,3.688,3.688,0,0,0,1.118-.541,2.641,2.641,0,0,0,.753-.828A1.877,1.877,0,0,0-.023,1.375a3.129,3.129,0,0,0-.1-.632Q-.219.391-.346.023t-.28-.73q-.153-.362-.287-.661t-.231-.515q-.1-.215-.124-.293L.5-3.16a1.552,1.552,0,0,1,.13.254q.1.228.244.59t.3.824q.16.463.29.958T1.688.45a5.105,5.105,0,0,1,.088.9A5.189,5.189,0,0,1,1.645,2.5a4.623,4.623,0,0,1-.4,1.1,4.486,4.486,0,0,1-.678.971,4.181,4.181,0,0,1-.961.776,4.893,4.893,0,0,1-1.258.515A6.1,6.1,0,0,1-3.21,6.048Zm.046-7.84L-4.611-3.238l1.447-1.447,1.447,1.447Z" transform="translate(12.04 4.685)" fill="#d8eeff"/></svg>