<svg xmlns="http://www.w3.org/2000/svg" width="23.861" height="23.861" viewBox="0 0 23.861 23.861">
  <g id="vuesax_bold_teacher" data-name="vuesax/bold/teacher" transform="translate(0 0)">
    <path id="Vector" d="M11.145.17a.994.994,0,0,1,1.541.835V2.288A3.407,3.407,0,0,1,10.519,5.3L7.347,6.354a3.629,3.629,0,0,1-2.008,0L2.167,5.3A3.392,3.392,0,0,1,0,2.288V1A.994.994,0,0,1,1.531.16L3.579,1.493a5.018,5.018,0,0,0,2.774.785,5.018,5.018,0,0,0,2.774-.785Z" transform="translate(5.588 15.379)" fill="#d8eeff"/>
    <path id="Vector-2" data-name="Vector" d="M17.3,4.437,11.342.529a3.888,3.888,0,0,0-3.917,0L1.439,4.437a3.168,3.168,0,0,0,0,5.309L3.03,10.78l4.394,2.863a3.888,3.888,0,0,0,3.917,0l4.365-2.863,1.362-.895v3.042a.746.746,0,1,0,1.491,0V8.036A3.157,3.157,0,0,0,17.3,4.437Z" transform="translate(2.568 1.986)" fill="#d8eeff"/>
    <path id="Vector-3" data-name="Vector" d="M0,0H23.861V23.861H0Z" transform="translate(23.861 23.861) rotate(180)" fill="none" opacity="0"/>
  </g>
</svg>
