<svg xmlns="http://www.w3.org/2000/svg"  viewBox="0 0 19.393 19.393">
  <g id="vuesax_outline_user-edit" data-name="vuesax/outline/user-edit" transform="translate(-492 -188)">
    <g id="user-edit" transform="translate(492 188)">
      <path id="Vector" d="M4.646,9.292A4.646,4.646,0,1,1,9.292,4.646,4.652,4.652,0,0,1,4.646,9.292Zm0-8.08A3.434,3.434,0,1,0,8.08,4.646,3.442,3.442,0,0,0,4.646,1.212Z" transform="translate(5.05 1.01)" fill="#fff"/>
      <path id="Vector-2" data-name="Vector" d="M1.129,6.731a1.136,1.136,0,0,1-.808-.323,1.15,1.15,0,0,1-.307-.994L.168,4.323A1.632,1.632,0,0,1,.58,3.5L3.44.638a1.7,1.7,0,0,1,2.65,0,1.9,1.9,0,0,1,.638,1.325A1.852,1.852,0,0,1,6.091,3.28L3.23,6.141a1.6,1.6,0,0,1-.824.412l-1.091.153A.734.734,0,0,1,1.129,6.731ZM4.757,1.212c-.145,0-.275.1-.461.283l-2.86,2.86a.307.307,0,0,0-.065.137L1.226,5.5l1.01-.145a.449.449,0,0,0,.137-.073l2.86-2.86a.839.839,0,0,0,.283-.461.765.765,0,0,0-.283-.469C5.04,1.3,4.895,1.212,4.757,1.212Z" transform="translate(11.654 11.652)" fill="#fff"/>
      <path id="Vector-3" data-name="Vector" d="M2.4,3a.521.521,0,0,1-.162-.024A3.214,3.214,0,0,1,.022.766.6.6,0,0,1,1.186.442,1.992,1.992,0,0,0,2.559,1.816.605.605,0,0,1,2.4,3Z" transform="translate(14.506 12.527)" fill="#fff"/>
      <path id="Vector-4" data-name="Vector" d="M.606,6.868A.61.61,0,0,1,0,6.262C0,2.812,3.386,0,7.547,0a9.064,9.064,0,0,1,2.57.372.6.6,0,0,1-.347,1.155A7.82,7.82,0,0,0,7.547,1.2c-3.491,0-6.335,2.263-6.335,5.05A.612.612,0,0,1,.606,6.868Z" transform="translate(2.15 11.515)" fill="#fff"/>
      <path id="Vector-5" data-name="Vector" d="M0,0H19.393V19.393H0Z" fill="none" opacity="0"/>
    </g>
  </g>
</svg>
