<svg xmlns="http://www.w3.org/2000/svg" width="23.861" height="23.861" viewBox="0 0 23.861 23.861">
  <g id="vuesax_bold_briefcase" data-name="vuesax/bold/briefcase" transform="translate(0)">
    <path id="Vector" d="M18.977,5.18c-.845-.935-2.257-1.4-4.3-1.4h-.239v-.04c0-1.67,0-3.738-3.738-3.738H9.184C5.445,0,5.445,2.078,5.445,3.738v.05H5.207c-2.058,0-3.46.467-4.3,1.4A4.521,4.521,0,0,0,.047,8.759l.01.07.1,1.044s.716.477,1.074.676c.139.089.288.169.437.249a17.066,17.066,0,0,0,5.468,1.869c.089.935.5,2.028,2.674,2.028s2.6-1.084,2.674-2.048a16.731,16.731,0,0,0,5.757-2.068c.06-.03.1-.06.149-.089a13.834,13.834,0,0,0,1.352-.895l.04-.358.05-.467c.01-.06.01-.109.02-.179A4.407,4.407,0,0,0,18.977,5.18Zm-7.954,6.81c0,1.054,0,1.213-1.223,1.213S8.577,13.014,8.577,12V10.748h2.446ZM6.867,3.778v-.04c0-1.69,0-2.317,2.317-2.317h1.511c2.317,0,2.317.636,2.317,2.317v.05H6.867Z" transform="translate(1.991 1.76)" fill="#d8eeff"/>
    <path id="Vector-2" data-name="Vector" d="M19.228,0l-.437,4.819c-.209,1.988-1.024,4.017-5.4,4.017H5.816c-4.375,0-5.19-2.028-5.4-4.007L0,.236A39.417,39.417,0,0,0,5.568,2.423c.547,1.452,1.9,2.227,3.907,2.227,1.988,0,3.36-.805,3.907-2.257A38.115,38.115,0,0,0,19.228,0Z" transform="translate(2.326 13.266)" fill="#d8eeff"/>
    <path id="Vector-3" data-name="Vector" d="M0,0H23.861V23.861H0Z" transform="translate(23.861 23.861) rotate(180)" fill="none" opacity="0"/>
  </g>
</svg>
